HIERARCHY
ROOT Hips
{
	OFFSET -0.001795 -0.223333 0.028219
	CHANNELS 6 Xposition Yposition Zposition Zrotation Yrotation Xrotation 
	JOINT LeftUpLeg
	{
		OFFSET 0.069520 -0.091406 -0.006815
		CHANNELS 3 Zrotation Yrotation Xrotation
		JOINT LeftLeg
		{
			OFFSET 0.034277 -0.375199 -0.004496
			CHANNELS 3 Zrotation Yrotation Xrotation
			JOINT LeftFoot
			{
				OFFSET -0.013596 -0.397961 -0.043693
				CHANNELS 3 Zrotation Yrotation Xrotation
				JOINT LeftToe
				{
					OFFSET 0.026358 -0.055791 0.119288
					CHANNELS 3 Zrotation Yrotation Xrotation
					End Site
					{
						OFFSET 0.000000 0.000000 0.000000
					}
				}
			}
		}
	}
	JOINT RightUpLeg
	{
		OFFSET -0.067670 -0.090522 -0.004320
		CHANNELS 3 Zrotation Yrotation Xrotation
		JOINT RightLeg
		{
			OFFSET -0.038290 -0.382569 -0.008850
			CHANNELS 3 Zrotation Yrotation Xrotation
			JOINT RightFoot
			{
				OFFSET 0.015774 -0.398415 -0.042312
				CHANNELS 3 Zrotation Yrotation Xrotation
				JOINT RightToe
				{
					OFFSET -0.025372 -0.048144 0.123348
					CHANNELS 3 Zrotation Yrotation Xrotation
					End Site
					{
						OFFSET 0.000000 0.000000 0.000000
					}
				}
			}
		}
	}
	JOINT Spine
	{
		OFFSET -0.002533 0.108963 -0.026696
		CHANNELS 3 Zrotation Yrotation Xrotation
		JOINT Spine1
		{
			OFFSET 0.005487 0.135180 0.001092
			CHANNELS 3 Zrotation Yrotation Xrotation
			JOINT Spine2
			{
				OFFSET 0.001457 0.052922 0.025425
				CHANNELS 3 Zrotation Yrotation Xrotation
				JOINT Neck
				{
					OFFSET -0.002778 0.213870 -0.042857
					CHANNELS 3 Zrotation Yrotation Xrotation
					JOINT Head
					{
						OFFSET 0.005152 0.064970 0.051349
						CHANNELS 3 Zrotation Yrotation Xrotation
						End Site
						{
							OFFSET 0.000000 0.000000 0.000000
						}
					}
				}
				JOINT LeftShoulder
				{
					OFFSET 0.078845 0.121749 -0.034090
					CHANNELS 3 Zrotation Yrotation Xrotation
					JOINT LeftArm
					{
						OFFSET 0.090977 0.030469 -0.008868
						CHANNELS 3 Zrotation Yrotation Xrotation
						JOINT LeftForeArm
						{
							OFFSET 0.259612 -0.012772 -0.027456
							CHANNELS 3 Zrotation Yrotation Xrotation
							JOINT LeftHand
							{
								OFFSET 0.249234 0.008986 -0.001171
								CHANNELS 3 Zrotation Yrotation Xrotation
								End Site
								{
									OFFSET 0.000000 0.000000 0.000000
								}
							}
						}
					}
				}
				JOINT RightShoulder
				{
					OFFSET -0.081759 0.118833 -0.038615
					CHANNELS 3 Zrotation Yrotation Xrotation
					JOINT RightArm
					{
						OFFSET -0.096012 0.032551 -0.009143
						CHANNELS 3 Zrotation Yrotation Xrotation
						JOINT RightForeArm
						{
							OFFSET -0.253742 -0.013329 -0.021401
							CHANNELS 3 Zrotation Yrotation Xrotation
							JOINT RightHand
							{
								OFFSET -0.255298 0.007772 -0.005559
								CHANNELS 3 Zrotation Yrotation Xrotation
								End Site
								{
									OFFSET 0.000000 0.000000 0.000000
								}
							}
						}
					}
				}
			}
		}
	}
}
MOTION
Frames: 5
Frame Time: 0.050000
-0.077201 0.893700 0.057644 -3.818810 -8.420798 -9.535510 23.223667 0.762463 2.085034 -4.932539 1.082453 18.705766 0.908511 2.900009 2.767444 0.000000 0.000000 0.000000 -12.940278 0.501680 5.824915 9.972800 -1.430709 19.473659 -8.534156 -20.628836 6.347066 0.000000 0.000000 0.000000 -4.748356 -0.005234 -8.252351 15.122284 -2.751752 -26.972323 2.553944 -1.408808 22.636025 0.304710 0.006267 -18.066690 0.000000 0.000000 0.000000 -12.293409 -3.108909 1.924908 -38.001484 -46.187505 8.536222 128.205125 -50.825797 -76.643468 0.000000 0.000000 0.000000 -4.241408 19.881611 6.174447 38.091112 46.003354 7.979148 -114.550669 47.912365 -65.236819 0.000000 0.000000 0.000000 
-0.079025 0.897364 0.052532 -2.830096 -7.218534 -8.433277 22.385296 0.728838 0.527853 -5.288670 1.155940 19.008973 0.264392 1.267926 1.799887 0.000000 0.000000 0.000000 -14.311547 0.531037 4.007964 8.708156 -1.180627 19.765098 -5.793616 -15.769714 8.568591 0.000000 0.000000 0.000000 -4.128266 -0.009413 -5.160609 15.299668 -2.675930 -27.555435 3.511897 -2.051941 22.412615 -0.256980 0.399569 -18.768658 0.000000 0.000000 0.000000 -11.939980 -3.601134 2.119076 -33.347787 -44.786462 6.543657 126.789372 -47.456012 -71.207202 0.000000 0.000000 0.000000 -5.723568 19.381228 5.922679 37.206374 43.812600 7.020162 -118.245114 48.340113 -69.812385 0.000000 0.000000 0.000000 
-0.079342 0.902265 0.046239 -1.859400 -6.808056 -7.132474 20.952885 0.712854 -0.886559 -5.298113 1.182223 19.598138 -0.859527 0.831495 6.577381 0.000000 0.000000 0.000000 -16.223952 0.615194 2.327407 7.749814 -0.950891 18.992412 -1.599664 -8.532854 11.093874 0.000000 0.000000 0.000000 -2.342039 0.036701 -2.853985 16.188608 -3.033388 -26.485935 3.247492 -1.654870 21.851402 -0.876893 0.836523 -16.110320 0.000000 0.000000 0.000000 -12.334848 -3.581648 1.993170 -28.878178 -41.708750 4.360687 125.825413 -44.384532 -67.161519 0.000000 0.000000 0.000000 -6.071058 20.108185 6.063377 34.954514 40.416665 5.587335 -119.131827 49.401346 -72.116941 0.000000 0.000000 0.000000 
-0.078840 0.906389 0.038490 -0.675184 -6.527659 -4.953776 19.169685 0.639968 -2.437546 -5.306130 1.176313 18.971935 -4.030212 -6.190376 4.476003 0.000000 0.000000 0.000000 -18.049536 0.639173 -0.266305 7.489311 -0.900022 18.460324 0.839573 -4.273770 12.088915 0.000000 0.000000 0.000000 -0.249820 -0.001453 -0.090935 17.267375 -3.509433 -25.121913 3.371139 -0.811622 20.566213 -1.570788 1.418565 -12.690746 0.000000 0.000000 0.000000 -15.571792 -4.374074 2.310513 -22.884815 -37.393716 1.944457 125.447523 -42.821760 -66.291822 0.000000 0.000000 0.000000 -4.970859 20.000500 6.120080 31.526363 37.903277 4.327621 -121.607813 51.501172 -77.256947 0.000000 0.000000 0.000000 
-0.078235 0.909071 0.027573 0.682813 -7.693506 -3.005888 17.600275 0.638114 -3.678789 -6.122456 1.413970 16.890212 -2.830763 -3.720367 4.909189 0.000000 0.000000 0.000000 -20.611466 0.661971 -3.730754 8.729921 -1.141656 18.084447 2.418439 -2.212059 13.884482 0.000000 0.000000 0.000000 2.485960 -0.284647 4.738935 17.618653 -3.723167 -24.141995 3.902183 1.261812 20.194557 -2.499409 2.306226 -12.332632 0.000000 0.000000 0.000000 -18.374515 -4.218742 1.991718 -20.722773 -33.469688 0.907999 129.373037 -43.060881 -72.324882 0.000000 0.000000 0.000000 -5.835475 20.618498 6.159346 28.140000 36.224126 3.344536 -121.788223 50.275034 -75.238474 0.000000 0.000000 0.000000 
